<svg width="30" height="30" viewBox="0 0 30 30" fill="none" xmlns="http://www.w3.org/2000/svg">
<path d="M11.1435 30C10.2113 30 9.32832 29.565 8.76256 28.8149L1.10541 18.6975C0.868676 18.3851 0.695843 18.029 0.596795 17.6497C0.497746 17.2704 0.474425 16.8753 0.528163 16.487C0.581901 16.0987 0.711645 15.7248 0.909978 15.3867C1.10831 15.0486 1.37134 14.7528 1.68404 14.5164C1.99662 14.279 2.35298 14.1056 2.7327 14.0062C3.11241 13.9068 3.50801 13.8833 3.89683 13.937C4.28564 13.9908 4.66003 14.1207 4.99853 14.3195C5.33703 14.5182 5.63298 14.7817 5.86943 15.095L10.9078 21.7471L23.5754 1.40519C23.9955 0.733555 24.6648 0.255968 25.4366 0.0771878C26.2084 -0.101592 27.0195 0.0330315 27.6922 0.451529C29.0916 1.32161 29.5224 3.16464 28.648 4.5662L13.6809 28.5899C13.4254 29.0018 13.0732 29.3452 12.6549 29.5902C12.2367 29.8351 11.7649 29.9744 11.2806 29.9957C11.2335 30 11.1906 30 11.1435 30Z" fill="#0091D7"/>
</svg>
