<svg width="31" height="30" viewBox="0 0 31 30" fill="none" xmlns="http://www.w3.org/2000/svg">
<path fill-rule="evenodd" clip-rule="evenodd" d="M12.5 0.999999C12.5 1.55228 12.0523 2 11.5 2H3.91418L13.25 11.3359C13.6405 11.7264 13.6405 12.3595 13.25 12.75C12.8595 13.1405 12.2264 13.1405 11.8359 12.75L2.5 3.41418V11C2.5 11.5523 2.05228 12 1.5 12C0.947715 12 0.5 11.5523 0.5 11V1C0.5 0.447715 0.947714 0 1.5 0H11.5C12.0523 0 12.5 0.447715 12.5 0.999999ZM28.5 19C28.5 18.4477 28.9477 18 29.5 18C30.0523 18 30.5 18.4477 30.5 19V29C30.5 29.5523 30.0523 30 29.5 30H19.5C18.9477 30 18.5 29.5523 18.5 29C18.5 28.4477 18.9477 28 19.5 28H27.0858L17.5 18.4141C17.1095 18.0236 17.1095 17.3905 17.5 17C17.8905 16.6095 18.5236 16.6095 18.9141 17L28.5 26.5858V19Z" fill="#0091D7"/>
</svg>
