<svg width="31" height="30" viewBox="0 0 31 30" fill="none" xmlns="http://www.w3.org/2000/svg">
<path d="M7.31024 29.6763V10.3284H0.879415V29.6763H7.31024ZM4.09566 7.68524C6.3382 7.68524 7.73407 6.19955 7.73407 4.34293C7.69229 2.44445 6.33828 1 4.13821 1C1.93849 1 0.5 2.44448 0.5 4.34293C0.5 6.19963 1.89553 7.68524 4.05368 7.68524H4.09546H4.09566ZM10.8697 29.6763H17.3005V18.8715C17.3005 18.2932 17.3423 17.7156 17.5121 17.3022C17.977 16.1469 19.0351 14.9503 20.8116 14.9503C23.1386 14.9503 24.0696 16.7245 24.0696 19.3255V29.6761H30.5V18.5823C30.5 12.6394 27.3274 9.87421 23.0963 9.87421C19.6271 9.87421 18.1039 11.8134 17.2577 13.1341H17.3006V10.328H10.8698C10.9542 12.1435 10.8698 29.6759 10.8698 29.6759L10.8697 29.6763Z" fill="#0091D7"/>
</svg>
