<svg width="31" height="30" viewBox="0 0 31 30" fill="none" xmlns="http://www.w3.org/2000/svg">
<path fill-rule="evenodd" clip-rule="evenodd" d="M18.3957 3.64788C16.7061 2.52085 14.7202 1.92028 12.6892 1.92213C9.9716 1.93693 7.3697 3.02368 5.44895 4.94618C3.5282 6.86869 2.44383 9.47158 2.43152 12.1891C2.43152 14.2202 3.0339 16.2056 4.16247 17.8942C5.29104 19.5828 6.89508 20.8987 8.77168 21.6755C10.6483 22.4523 12.7131 22.6551 14.705 22.2582C16.6968 21.8613 18.5262 20.8825 19.9617 19.4457C21.3972 18.0089 22.3743 16.1786 22.7694 14.1864C23.1645 12.1942 22.9598 10.1295 22.1813 8.25363C21.4028 6.37774 20.0854 4.7749 18.3957 3.64788ZM5.91722 2.05424C7.92172 0.714881 10.2784 0 12.6892 0C15.9219 0 19.0223 1.28421 21.3082 3.57012C23.5941 5.85603 24.8783 8.95638 24.8783 12.1891C24.8783 14.5999 24.1634 16.9566 22.8241 18.9611C21.4847 20.9656 19.581 22.5279 17.3537 23.4504C15.1265 24.373 12.6756 24.6144 10.3112 24.1441C7.9467 23.6738 5.77481 22.5129 4.07012 20.8082C2.36544 19.1035 1.20454 16.9316 0.734216 14.5671C0.263895 12.2027 0.505281 9.75184 1.42785 7.52456C2.35042 5.29729 3.91273 3.3936 5.91722 2.05424ZM23.2842 21.4436L30.1945 28.4008C30.2813 28.4882 30.3501 28.5919 30.3968 28.7059C30.4436 28.8199 30.4674 28.942 30.467 29.0652C30.4665 29.1884 30.4418 29.3103 30.3943 29.4239C30.3467 29.5376 30.2773 29.6408 30.1898 29.7276C30.1024 29.8144 29.9987 29.8831 29.8848 29.9298C29.7708 29.9766 29.6487 30.0004 29.5255 30C29.4023 29.9996 29.2804 29.9749 29.1667 29.9273C29.0531 29.8798 28.9499 29.8103 28.8631 29.7229L21.9528 22.7657L23.2842 21.4436Z" fill="#0091D7"/>
</svg>
