<svg width="30" height="30" viewBox="0 0 30 30" fill="none" xmlns="http://www.w3.org/2000/svg">
<path d="M30 5.89287C28.8968 6.38173 27.7116 6.71204 26.4657 6.86134C27.7513 6.0921 28.713 4.88142 29.1716 3.45519C27.9638 4.17261 26.6419 4.67759 25.2634 4.94819C24.3364 3.9584 23.1085 3.30236 21.7704 3.08191C20.4324 2.86146 19.059 3.08893 17.8634 3.72902C16.6679 4.36911 15.7171 5.386 15.1588 6.6218C14.6004 7.85761 14.4656 9.2432 14.7754 10.5634C12.328 10.4406 9.93389 9.80446 7.74829 8.69641C5.5627 7.58836 3.63451 6.03314 2.08888 4.13166C1.56038 5.04332 1.2565 6.10031 1.2565 7.226C1.25591 8.23938 1.50546 9.23724 1.98302 10.131C2.46057 11.0248 3.15136 11.787 3.9941 12.3498C3.01675 12.3187 2.06096 12.0546 1.20629 11.5795V11.6587C1.20619 13.0801 1.69783 14.4576 2.59779 15.5577C3.49775 16.6578 4.7506 17.4126 6.14375 17.6942C5.2371 17.9395 4.28654 17.9757 3.36387 17.7999C3.75693 19.0228 4.52259 20.0922 5.55364 20.8584C6.5847 21.6246 7.82954 22.0492 9.11389 22.0727C6.93363 23.7843 4.24102 24.7127 1.46922 24.7086C0.978219 24.7087 0.487637 24.6801 0 24.6227C2.81354 26.4317 6.08871 27.3918 9.43363 27.3881C20.7566 27.3881 26.9466 18.0099 26.9466 9.8764C26.9466 9.61215 26.94 9.34526 26.9281 9.08102C28.1322 8.21029 29.1715 7.13205 29.9974 5.89684L30 5.89287Z" fill="#0091D7"/>
</svg>
