<svg width="30" height="30" viewBox="0 0 30 30" fill="none" xmlns="http://www.w3.org/2000/svg">
<path fill-rule="evenodd" clip-rule="evenodd" d="M0.94765 27.0608C0.42427 27.5795 0.42427 28.4205 0.94765 28.9392C1.47103 29.4579 2.3196 29.4579 2.84298 28.9392L15.1261 16.7657L27.5869 29.1153C28.1103 29.634 28.9589 29.634 29.4822 29.1153C30.0056 28.5966 30.0056 27.7556 29.4822 27.2369L17.0214 14.8873L29.3776 2.64146C29.901 2.12275 29.901 1.28176 29.3776 0.763054C28.8542 0.244346 28.0056 0.244346 27.4822 0.763056L15.1261 13.0089L2.94765 0.939176C2.42427 0.420468 1.5757 0.420468 1.05232 0.939176C0.528944 1.45788 0.528944 2.29888 1.05232 2.81758L13.2308 14.8873L0.94765 27.0608Z" fill="#0091D7"/>
</svg>
