<svg width="31" height="30" viewBox="0 0 31 30" fill="none" xmlns="http://www.w3.org/2000/svg">
<path fill-rule="evenodd" clip-rule="evenodd" d="M26.7207 10.1806V10.4743H26.7115C28.14 11.2646 29.2644 12.5083 29.907 14.009C30.5497 15.5096 30.674 17.1817 30.2602 18.7608C29.8465 20.34 28.9183 21.7363 27.6224 22.7291C26.3264 23.7218 24.7366 24.2544 23.1042 24.2427H21.9293C22.1393 23.6488 22.1393 23.0008 21.9293 22.4069H23.1134C24.3789 22.4228 25.6113 22.0024 26.6032 21.2163C27.5952 20.4302 28.2861 19.3265 28.5597 18.0907C28.8334 16.855 28.673 15.5628 28.1057 14.4314C27.5384 13.3 26.5988 12.3986 25.4448 11.8787L24.8482 11.6033L24.9216 10.9424C24.9343 10.6978 24.9343 10.4527 24.9216 10.2081C24.8592 8.20842 24.0089 6.31444 22.556 4.93896C21.1032 3.56348 19.1656 2.818 17.1654 2.86499C15.5812 2.84 14.0275 3.30194 12.7143 4.18837C11.401 5.0748 10.3916 6.34301 9.82229 7.82161L9.61117 8.39988H8.99618C7.22499 8.51474 5.563 9.29609 4.34458 10.5867C3.12615 11.8774 2.44169 13.5816 2.4289 15.3564C2.41611 17.1313 3.07592 18.8452 4.27562 20.1532C5.47531 21.4613 7.12586 22.2665 8.89522 22.4069C8.68524 23.0008 8.68524 23.6488 8.89522 24.2427C6.67922 24.1268 4.58743 23.1835 3.03369 21.5992C1.47995 20.0149 0.577456 17.9051 0.504759 15.6873C0.432062 13.4695 1.19446 11.3051 2.64111 9.62251C4.08777 7.93988 6.11329 6.86153 8.31694 6.60081C9.08996 4.91763 10.3329 3.49369 11.8962 2.50034C13.4595 1.50699 15.2766 0.98656 17.1287 1.00167C19.6156 0.954823 22.0201 1.89374 23.8172 3.61346C25.6143 5.33317 26.6581 7.69401 26.7207 10.1806ZM18.9978 22.5394C19.1096 22.4937 19.2294 22.4706 19.3502 22.4713H19.3594C19.5417 22.4702 19.7202 22.5235 19.8721 22.6243C20.0241 22.7251 20.1425 22.8688 20.2124 23.0372C20.2824 23.2056 20.3005 23.391 20.2647 23.5697C20.2288 23.7485 20.1405 23.9125 20.0111 24.0409L15.4216 28.6303L10.8322 24.0409C10.6605 23.8668 10.5651 23.6317 10.5668 23.3873C10.5685 23.1428 10.6673 22.9091 10.8413 22.7375C11.0154 22.5659 11.2505 22.4704 11.4949 22.4721C11.7394 22.4738 11.9731 22.5726 12.1447 22.7467L14.5037 25.1056V13.8523C14.5037 13.6088 14.6004 13.3754 14.7726 13.2032C14.9447 13.0311 15.1782 12.9344 15.4216 12.9344C15.6651 12.9344 15.8985 13.0311 16.0707 13.2032C16.2428 13.3754 16.3395 13.6088 16.3395 13.8523V25.1056L18.6985 22.7375C18.7843 22.6524 18.886 22.5851 18.9978 22.5394Z" fill="#0091D7"/>
</svg>
