<svg width="31" height="30" viewBox="0 0 31 30" fill="none" xmlns="http://www.w3.org/2000/svg">
<path fill-rule="evenodd" clip-rule="evenodd" d="M27.9324 2.51507C28.6865 3.26893 29.275 4.17196 29.66 5.16633C30.104 6.34606 30.3409 7.5936 30.3603 8.85396C30.4534 10.4458 30.4534 10.9614 30.4534 15.025C30.4534 19.0885 30.4318 19.5958 30.3603 21.1959C30.3353 22.4401 30.1008 23.6677 29.6633 24.832C29.2778 25.8263 28.6892 26.7293 27.9351 27.4833C27.181 28.2374 26.278 28.826 25.2838 29.2116C24.1198 29.6476 22.8904 29.8832 21.6477 29.9085C20.0592 30 19.5386 30 15.4767 30C11.4148 30 10.9075 29.9784 9.30572 29.9085C8.0605 29.8676 6.83139 29.6144 5.67132 29.16C4.67675 28.7751 3.77341 28.1869 3.01902 27.4331C2.26463 26.6793 1.67578 25.7764 1.29009 24.7821C0.852628 23.6161 0.618097 22.3886 0.593147 21.1444C0.5 19.5526 0.5 19.0353 0.5 14.9734C0.5 10.9098 0.521623 10.4025 0.593147 8.8024C0.617456 7.55961 0.853135 6.33003 1.29009 5.16633C1.6747 4.1717 2.26298 3.26844 3.01719 2.51452C3.7714 1.7606 4.67488 1.17266 5.66966 0.788423C6.83193 0.350302 8.06053 0.114033 9.3024 0.0898202C10.8909 0 11.4115 0 15.4734 0C19.5353 0 20.0426 0.0199599 21.6444 0.0898202C22.8872 0.115338 24.1167 0.351558 25.2804 0.788423C26.275 1.17311 27.1782 1.7612 27.9324 2.51507ZM27.1168 23.829C27.4484 22.9295 27.6233 21.9799 27.6341 21.0213V21.023H27.6524C27.7239 19.4328 27.7239 18.997 27.7239 14.9454V14.9451C27.7239 10.8916 27.7056 10.4474 27.6341 8.8656C27.6186 7.91777 27.4437 6.97929 27.1168 6.08949C26.8668 5.44257 26.4844 4.85505 25.994 4.36465C25.5036 3.87426 24.916 3.4918 24.2691 3.24185C23.3798 2.91096 22.4401 2.73596 21.4914 2.72455C19.8829 2.63307 19.4671 2.63307 15.4135 2.63307C11.3599 2.63307 10.9158 2.65303 9.334 2.72455C8.38594 2.7378 7.44709 2.91274 6.55788 3.24185C5.24551 3.74418 4.20592 4.77711 3.6986 6.08949C3.36702 6.98839 3.19206 7.9375 3.1813 8.89554C3.09315 10.5073 3.09315 10.9215 3.09315 14.9751C3.09315 19.0269 3.10978 19.4727 3.1813 21.0529C3.19679 22.0007 3.37167 22.9392 3.6986 23.829C3.94949 24.4771 4.33363 25.0652 4.82616 25.5555C5.3187 26.0457 5.90866 26.4271 6.55788 26.675C7.44665 27.0057 8.38577 27.1807 9.334 27.1923C10.9441 27.2838 11.3583 27.2838 15.4135 27.2838C19.4654 27.2838 19.9112 27.2655 21.4914 27.1923C22.4401 27.18 23.3796 27.0051 24.2691 26.675C24.9161 26.4256 25.5037 26.0435 25.9941 25.5534C26.4846 25.0632 26.867 24.4758 27.1168 23.829ZM23.4608 8.78224C24.451 8.78224 25.2538 7.97945 25.2538 6.98916C25.2538 5.99886 24.451 5.19608 23.4608 5.19608C22.4705 5.19608 21.6677 5.99886 21.6677 6.98916C21.6677 7.97945 22.4705 8.78224 23.4608 8.78224ZM15.4651 7.27226C13.4253 7.27226 11.469 8.08259 10.0266 9.52499C8.5842 10.9674 7.77386 12.9237 7.77386 14.9635C7.77386 17.0034 8.5842 18.9597 10.0266 20.4021C11.469 21.8445 13.4253 22.6548 15.4651 22.6548C17.505 22.6548 19.4613 21.8445 20.9037 20.4021C22.3461 18.9597 23.1564 17.0034 23.1564 14.9635C23.1564 12.9237 22.3461 10.9674 20.9037 9.52499C19.4613 8.08259 17.505 7.27226 15.4651 7.27226ZM15.4651 19.9586C14.1399 19.9586 12.869 19.4321 11.932 18.4951C10.9949 17.558 10.4685 16.2871 10.4685 14.9619C10.4685 13.6367 10.9949 12.3658 11.932 11.4287C12.869 10.4916 14.1399 9.96521 15.4651 9.96521C16.7903 9.96521 18.0613 10.4916 18.9983 11.4287C19.9354 12.3658 20.4618 13.6367 20.4618 14.9619C20.4618 16.2871 19.9354 17.558 18.9983 18.4951C18.0613 19.4321 16.7903 19.9586 15.4651 19.9586Z" fill="#0091D7"/>
</svg>
