<svg width="30" height="30" viewBox="0 0 30 30" fill="none" xmlns="http://www.w3.org/2000/svg">
<path d="M23.725 20.4785L19.1736 17.5201L20.8895 14.3743C21.2895 13.6396 21.4994 12.8166 21.5 11.9801V7C21.5 5.14348 20.7625 3.36301 19.4498 2.05025C18.137 0.737498 16.3565 0 14.5 0C12.6435 0 10.863 0.737498 9.55026 2.05025C8.23751 3.36301 7.50001 5.14348 7.50001 7V11.9801C7.50063 12.8166 7.7105 13.6396 8.11051 14.3743L9.82645 17.5201L5.27501 20.4785C4.57551 20.9313 4.00075 21.5523 3.6033 22.2847C3.20586 23.0171 2.99844 23.8375 3.00001 24.6707V30H26V24.6707C26.0016 23.8375 25.7941 23.0171 25.3967 22.2847C24.9993 21.5524 24.4245 20.9313 23.725 20.4785ZM24 28H5.00001V24.6707C4.99907 24.1708 5.12354 23.6786 5.36201 23.2391C5.60049 22.7997 5.94536 22.4271 6.36507 22.1554L12.4688 18.1879L9.86632 13.4166C9.62632 12.9758 9.5004 12.482 9.50001 11.9801V7C9.50001 5.67392 10.0268 4.40215 10.9645 3.46447C11.9022 2.52678 13.1739 2 14.5 2C15.8261 2 17.0979 2.52678 18.0355 3.46447C18.9732 4.40215 19.5 5.67392 19.5 7V11.9801C19.4996 12.482 19.3737 12.9758 19.1337 13.4166L16.5313 18.1879L22.6351 22.1554C23.0548 22.4271 23.3996 22.7997 23.6381 23.2391C23.8765 23.6786 24.001 24.1708 24 24.6707V28Z" fill="#0091D7"/>
</svg>
