<svg width="31" height="30" viewBox="0 0 31 30" fill="none" xmlns="http://www.w3.org/2000/svg">
<path fill-rule="evenodd" clip-rule="evenodd" d="M0.5 15.3333C0.5 17.1667 2 18.6667 3.83333 18.6667C5.66667 18.6667 7.16667 17.1667 7.16667 15.3333C7.16667 13.5 5.66667 12 3.83333 12C2 12 0.5 13.5 0.5 15.3333ZM15.5 18.6667C13.6667 18.6667 12.1667 17.1667 12.1667 15.3333C12.1667 13.5 13.6667 12 15.5 12C17.3333 12 18.8333 13.5 18.8333 15.3333C18.8333 17.1667 17.3333 18.6667 15.5 18.6667ZM27.1667 18.6667C25.3333 18.6667 23.8333 17.1667 23.8333 15.3333C23.8333 13.5 25.3333 12 27.1667 12C29 12 30.5 13.5 30.5 15.3333C30.5 17.1667 29 18.6667 27.1667 18.6667Z" fill="#0091D7"/>
</svg>
