<svg width="30" height="30" viewBox="0 0 30 30" fill="none" xmlns="http://www.w3.org/2000/svg">
<path fill-rule="evenodd" clip-rule="evenodd" d="M8.4 4C5.96995 4 4 5.96995 4 8.4C4 10.8301 5.96995 12.8 8.4 12.8C10.8301 12.8 12.8 10.8301 12.8 8.4C12.8 5.96995 10.8301 4 8.4 4ZM8.4 17.2C5.96995 17.2 4 19.1699 4 21.6C4 24.0301 5.96995 26 8.4 26C10.8301 26 12.8 24.0301 12.8 21.6C12.8 19.1699 10.8301 17.2 8.4 17.2ZM17.2 8.4C17.2 5.96995 19.1699 4 21.6 4C24.0301 4 26 5.96995 26 8.4C26 10.8301 24.0301 12.8 21.6 12.8C19.1699 12.8 17.2 10.8301 17.2 8.4ZM21.6 17.2C19.1699 17.2 17.2 19.1699 17.2 21.6C17.2 24.0301 19.1699 26 21.6 26C24.0301 26 26 24.0301 26 21.6C26 19.1699 24.0301 17.2 21.6 17.2Z" fill="#0091D7"/>
</svg>
