<svg width="30" height="32" viewBox="0 0 30 32" fill="none" xmlns="http://www.w3.org/2000/svg">
<path fill-rule="evenodd" clip-rule="evenodd" d="M14.7497 0.5C8.26941 0.5 3 5.78151 3 12.2704C3 17.0954 5.71233 21.7678 8.41169 25.2356C11.1195 28.7142 13.8821 31.0661 14.1252 31.2706C14.2981 31.4173 14.5172 31.4986 14.7441 31.5C14.9711 31.5014 15.1914 31.4228 15.3663 31.2779C15.6033 31.0821 18.3717 28.7681 21.085 25.3025C23.7873 21.8512 26.4995 17.1766 26.4995 12.2704C26.4995 5.78151 21.2301 0.5 14.7497 0.5ZM4.93748 12.2704C4.93748 6.8476 9.34099 2.43748 14.7497 2.43748C20.1585 2.43748 24.562 6.8476 24.562 12.2704C24.562 16.1874 22.4946 20.1093 20.1535 23.2819C18.0735 26.1007 15.821 28.27 14.7542 29.2372C13.6889 28.2571 11.4334 26.0579 9.3502 23.224C7.00587 20.0347 4.93748 16.1184 4.93748 12.2704ZM14.7497 6.12487C11.3715 6.12487 8.62487 8.87148 8.62487 12.2497C8.62487 15.628 11.3715 18.3746 14.7497 18.3746C18.128 18.3746 20.8746 15.628 20.8746 12.2497C20.8746 8.87148 18.128 6.12487 14.7497 6.12487ZM10.5623 12.2497C10.5623 9.94125 12.4413 8.06235 14.7497 8.06235C17.0582 8.06235 18.9371 9.94125 18.9371 12.2497C18.9371 14.5582 17.0582 16.4371 14.7497 16.4371C12.4413 16.4371 10.5623 14.5582 10.5623 12.2497Z" fill="#0091D7"/>
</svg>
