<svg width="30" height="30" viewBox="0 0 30 30" fill="none" xmlns="http://www.w3.org/2000/svg">
<path d="M29.3897 8.2343C29.219 7.61387 28.8853 7.04806 28.4219 6.59318C27.9586 6.1383 27.3816 5.81021 26.7486 5.64158C24.4012 5.01029 15.0104 5.00001 15.0104 5.00001C15.0104 5.00001 5.62103 4.98973 3.27219 5.59313C2.63952 5.76952 2.06377 6.10225 1.60022 6.55936C1.13666 7.01647 0.800864 7.58263 0.62506 8.20347C0.00599823 10.5026 2.19616e-06 15.271 2.19616e-06 15.271C2.19616e-06 15.271 -0.00599354 20.063 0.608572 22.3386C0.953328 23.5968 1.96511 24.5907 3.2512 24.9298C5.62253 25.5611 14.9879 25.5714 14.9879 25.5714C14.9879 25.5714 24.3788 25.5817 26.7261 24.9798C27.3594 24.8114 27.9369 24.4841 28.4014 24.0301C28.8659 23.5762 29.2014 23.0113 29.3747 22.3915C29.9953 20.0938 29.9998 15.3268 29.9998 15.3268C29.9998 15.3268 30.0298 10.5334 29.3897 8.2343ZM12.0065 19.6886L12.014 10.8799L19.819 15.2916L12.0065 19.6886Z" fill="#0091D7"/>
</svg>
