<svg width="30" height="30" viewBox="0 0 30 30" fill="none" xmlns="http://www.w3.org/2000/svg">
<path fill-rule="evenodd" clip-rule="evenodd" d="M0 4C0 3.44772 0.447715 3 1 3H29C29.5523 3 30 3.44772 30 4C30 4.55228 29.5523 5 29 5H1C0.447715 5 0 4.55228 0 4Z" fill="#0091D7"/>
<path fill-rule="evenodd" clip-rule="evenodd" d="M0 15C0 14.4477 0.447715 14 1 14H29C29.5523 14 30 14.4477 30 15C30 15.5523 29.5523 16 29 16H1C0.447715 16 0 15.5523 0 15Z" fill="#0091D7"/>
<path fill-rule="evenodd" clip-rule="evenodd" d="M0 26C0 25.4477 0.447715 25 1 25H29C29.5523 25 30 25.4477 30 26C30 26.5523 29.5523 27 29 27H1C0.447715 27 0 26.5523 0 26Z" fill="#0091D7"/>
</svg>
